<svg width="1269" height="218" viewBox="0 0 1269 218" fill="none" xmlns="http://www.w3.org/2000/svg">
<rect width="1269" height="218" fill="#37267F"/>
<path d="M176.881 158H163.441C160.539 158 158.619 157.531 157.681 156.592C156.827 155.653 156.401 153.691 156.401 150.704V72.752C156.401 69.7653 156.827 67.8027 157.681 66.864C158.619 65.9253 160.539 65.456 163.441 65.456H176.881V158ZM215.631 158H202.191C199.289 158 197.369 157.531 196.431 156.592C195.577 155.653 195.151 153.691 195.151 150.704V70.576C195.151 69.04 195.577 67.8027 196.431 66.864C197.284 65.9253 198.393 65.456 199.759 65.456H215.631V158ZM220.751 65.456H237.007C241.956 65.456 245.839 65.84 248.655 66.608C251.556 67.376 253.732 68.912 255.183 71.216C256.633 73.4347 257.529 75.952 257.871 78.768C258.297 81.4987 258.511 85.3813 258.511 90.416C258.511 95.4507 258.297 99.2907 257.871 101.936C257.529 104.581 256.633 107.056 255.183 109.36C253.817 111.664 251.641 113.285 248.655 114.224C245.753 115.163 241.871 115.632 237.007 115.632H220.751V103.472H230.223C232.441 103.472 233.849 103.173 234.447 102.576C235.129 101.979 235.471 101.04 235.471 99.76V81.456C235.471 80.0907 235.129 79.1093 234.447 78.512C233.849 77.9147 232.441 77.616 230.223 77.616H220.751V65.456ZM233.039 119.6H248.911C251.471 119.6 253.305 120.325 254.415 121.776C255.524 123.141 256.079 125.403 256.079 128.56V158H237.647C236.281 158 235.172 157.531 234.319 156.592C233.465 155.653 233.039 154.416 233.039 152.88V119.6ZM294.881 158H281.441C278.539 158 276.619 157.531 275.681 156.592C274.827 155.653 274.401 153.691 274.401 150.704V72.752C274.401 69.7653 274.827 67.8027 275.681 66.864C276.619 65.9253 278.539 65.456 281.441 65.456H294.881V158ZM383.423 65.456V150.704C383.423 153.691 382.953 155.653 382.015 156.592C381.161 157.531 379.284 158 376.382 158H358.207C353.172 158 349.844 157.232 348.223 155.696C346.687 154.16 345.321 150.192 344.127 143.792C341.737 131.163 338.281 110.768 333.759 82.608C333.417 80.4747 332.905 79.1093 332.223 78.512C331.625 77.9147 330.559 77.5733 329.023 77.488H313.279V65.456H341.055C343.188 65.456 344.895 65.712 346.175 66.224C347.455 66.736 348.479 67.8453 349.247 69.552C350.1 71.1733 350.655 72.752 350.911 74.288C351.252 75.824 351.593 77.616 351.935 79.664C352.361 82.1387 352.959 85.7653 353.727 90.544C355.177 100.187 357.439 113.797 360.511 131.376C361.705 138.885 362.516 143.109 362.943 144.048C363.455 144.901 364.308 145.413 365.503 145.584V70.576C365.503 69.04 365.929 67.8027 366.783 66.864C367.636 65.9253 368.745 65.456 370.111 65.456H383.423ZM313.279 81.968H326.591C327.956 81.968 329.065 82.4373 329.919 83.376C330.772 84.3147 331.199 85.552 331.199 87.088V150.704C331.199 153.605 330.815 155.568 330.047 156.592C329.279 157.531 327.743 158 325.439 158H313.279V81.968ZM436.208 77.616H424.304C422.938 77.616 422.256 77.9573 422.256 78.64V158H408.816C405.914 158 403.994 157.531 403.056 156.592C402.202 155.653 401.776 153.691 401.776 150.704V72.752C401.776 69.7653 402.202 67.8027 403.056 66.864C403.994 65.9253 405.914 65.456 408.816 65.456H436.208V77.616ZM441.328 65.456H454.768C457.669 65.456 459.546 65.9253 460.4 66.864C461.338 67.8027 461.808 69.7653 461.808 72.752V150.576C461.808 153.563 461.338 155.568 460.4 156.592C459.461 157.531 457.584 158 454.768 158H441.328V115.12H427.376V102.96H441.328V65.456ZM521.8 65.456V101.936C521.8 103.301 522.013 104.283 522.44 104.88C522.866 105.392 523.848 105.648 525.384 105.648H529.992V117.808H510.024C506.781 117.808 504.52 117.083 503.24 115.632C501.96 114.096 501.32 111.749 501.32 108.592V71.472C501.32 67.4613 503.666 65.456 508.36 65.456H521.8ZM542.664 158H526.664C523.762 158 521.842 157.531 520.904 156.592C520.05 155.653 519.624 153.691 519.624 150.704V130.224C519.624 127.237 520.05 125.275 520.904 124.336C521.842 123.397 523.762 122.928 526.664 122.928H542.664V158ZM541.64 65.456H555.08C557.64 65.456 559.432 65.968 560.456 66.992C561.565 68.016 562.12 69.936 562.12 72.752V108.848C562.12 114.821 559.645 117.808 554.696 117.808H535.112V105.648H538.184C539.72 105.648 540.658 105.349 541 104.752C541.426 104.155 541.64 103.216 541.64 101.936V65.456ZM611.083 77.616H599.179C597.813 77.616 597.131 77.9573 597.131 78.64V158H583.691C580.789 158 578.869 157.531 577.931 156.592C577.077 155.653 576.651 153.691 576.651 150.704V72.752C576.651 69.7653 577.077 67.8027 577.931 66.864C578.869 65.9253 580.789 65.456 583.691 65.456H611.083V77.616ZM616.203 65.456H629.643C632.544 65.456 634.421 65.9253 635.275 66.864C636.213 67.8027 636.683 69.7653 636.683 72.752V150.576C636.683 153.563 636.213 155.568 635.275 156.592C634.336 157.531 632.459 158 629.643 158H616.203V115.12H602.251V102.96H616.203V65.456ZM649.013 65.456H689.077C690.442 65.456 691.551 65.9253 692.405 66.864C693.258 67.8027 693.685 69.04 693.685 70.576V158H680.245C677.343 158 675.423 157.531 674.485 156.592C673.631 155.653 673.205 153.691 673.205 150.704V81.456H652.725C650.25 81.456 649.013 79.408 649.013 75.312V65.456ZM698.805 65.456H719.285C721.759 65.456 722.997 67.504 722.997 71.6V81.456H698.805V65.456ZM754.271 65.584V102.32C754.271 103.685 754.569 104.667 755.167 105.264C755.849 105.861 757.3 106.16 759.519 106.16H768.991V118.32H752.735C747.871 118.32 743.945 117.808 740.958 116.784C738.057 115.76 735.881 113.968 734.431 111.408C733.065 108.763 732.169 105.947 731.743 102.96C731.401 99.9733 731.231 95.9627 731.231 90.928C731.231 85.808 731.401 81.9253 731.743 79.28C732.169 76.6347 733.065 74.16 734.431 71.856C735.881 69.552 738.057 67.9307 740.958 66.992C743.945 66.0533 747.871 65.584 752.735 65.584H754.271ZM774.111 106.16H775.647C779.316 106.16 782.132 106.245 784.095 106.416C786.143 106.501 788.105 106.885 789.983 107.568C791.86 108.165 793.14 108.891 793.823 109.744C794.591 110.597 795.273 112.091 795.871 114.224C796.553 116.272 796.937 118.491 797.023 120.88C797.108 123.269 797.151 126.683 797.151 131.12C797.151 135.557 797.108 139.099 797.023 141.744C796.937 144.304 796.553 146.779 795.871 149.168C795.273 151.472 794.591 153.093 793.823 154.032C793.14 154.971 791.86 155.824 789.983 156.592C788.105 157.275 786.143 157.701 784.095 157.872C782.132 157.957 779.316 158 775.647 158H774.111V106.16ZM733.023 129.456H749.151C750.345 129.456 751.071 129.627 751.327 129.968C751.583 130.309 751.711 131.035 751.711 132.144V142.128C751.711 143.493 751.881 144.475 752.223 145.072C752.649 145.584 753.631 145.84 755.167 145.84H768.991V158H750.175C743.945 158 739.209 156.933 735.967 154.8C732.809 152.667 731.231 148.955 731.231 143.664V132.144C731.231 130.352 731.828 129.456 733.023 129.456ZM759.391 65.456H775.647C781.876 65.456 786.569 66.5227 789.727 68.656C792.969 70.7893 794.59 74.5013 794.59 79.792V91.312C794.59 93.104 793.993 94 792.799 94H776.671C775.476 94 774.751 93.8293 774.495 93.488C774.239 93.1467 774.111 92.4213 774.111 91.312V81.328C774.111 79.9627 773.897 79.024 773.471 78.512C773.129 77.9147 772.191 77.616 770.655 77.616H759.391V65.456ZM833.506 158H820.066C817.164 158 815.244 157.531 814.306 156.592C813.452 155.653 813.026 153.691 813.026 150.704V72.752C813.026 69.7653 813.452 67.8027 814.306 66.864C815.244 65.9253 817.164 65.456 820.066 65.456H833.506V158ZM873.058 140.08V150.96C873.058 153.861 872.588 155.781 871.65 156.72C870.711 157.573 868.748 158 865.762 158H838.626V140.08H873.058ZM865.378 102.32V110C865.378 113.072 865.079 115.035 864.482 115.888C863.884 116.656 862.178 117.04 859.362 117.04H838.626V102.32H865.378ZM871.778 65.456V76.336C871.778 79.2373 871.308 81.1573 870.37 82.096C869.431 82.9493 867.468 83.376 864.482 83.376H838.626V65.456H871.778ZM957.423 65.456V150.704C957.423 153.691 956.953 155.653 956.015 156.592C955.161 157.531 953.284 158 950.382 158H932.207C927.172 158 923.844 157.232 922.223 155.696C920.687 154.16 919.321 150.192 918.127 143.792C915.737 131.163 912.281 110.768 907.759 82.608C907.417 80.4747 906.905 79.1093 906.223 78.512C905.625 77.9147 904.559 77.5733 903.023 77.488H887.279V65.456H915.055C917.188 65.456 918.895 65.712 920.175 66.224C921.455 66.736 922.479 67.8453 923.247 69.552C924.1 71.1733 924.655 72.752 924.911 74.288C925.252 75.824 925.593 77.616 925.935 79.664C926.361 82.1387 926.959 85.7653 927.727 90.544C929.177 100.187 931.439 113.797 934.511 131.376C935.705 138.885 936.516 143.109 936.943 144.048C937.455 144.901 938.308 145.413 939.503 145.584V70.576C939.503 69.04 939.929 67.8027 940.783 66.864C941.636 65.9253 942.745 65.456 944.111 65.456H957.423ZM887.279 81.968H900.591C901.956 81.968 903.065 82.4373 903.919 83.376C904.772 84.3147 905.199 85.552 905.199 87.088V150.704C905.199 153.605 904.815 155.568 904.047 156.592C903.279 157.531 901.743 158 899.439 158H887.279V81.968ZM975.776 65.456H989.216C992.117 65.456 993.994 65.9253 994.848 66.864C995.786 67.8027 996.256 69.7653 996.256 72.752V158H982.816C979.914 158 977.994 157.531 977.056 156.592C976.202 155.653 975.776 153.691 975.776 150.704V65.456ZM1010.08 119.728H1024.67C1027.23 119.728 1029.07 120.453 1030.18 121.904C1031.28 123.269 1031.84 125.531 1031.84 128.688V158H1014.69C1013.32 158 1012.21 157.531 1011.36 156.592C1010.51 155.653 1010.08 154.416 1010.08 152.88V119.728ZM1010.46 65.456H1025.18C1027.66 65.456 1029.24 65.9253 1029.92 66.864C1030.6 67.8027 1030.94 69.7653 1030.94 72.752V99.888C1030.94 105.008 1030 108.848 1028.13 111.408C1026.34 113.883 1022.67 115.12 1017.12 115.12H1001.38V102.96H1007.01C1008.54 102.96 1009.48 102.704 1009.82 102.192C1010.25 101.595 1010.46 100.613 1010.46 99.248V65.456ZM1070.79 65.456V142.128C1070.79 143.408 1071.09 144.347 1071.69 144.944C1072.37 145.541 1073.82 145.84 1076.04 145.84H1085.51V158H1069.26C1065.84 158 1062.98 157.744 1060.68 157.232C1058.46 156.72 1056.5 155.696 1054.79 154.16C1053.17 152.539 1051.89 150.747 1050.95 148.784C1050.1 146.821 1049.42 143.877 1048.9 139.952C1048.14 134.064 1047.75 126.171 1047.75 116.272C1047.75 106.288 1047.79 99.248 1047.88 95.152C1048.05 91.056 1048.39 87.088 1048.9 83.248C1049.42 79.3227 1050.1 76.4213 1050.95 74.544C1051.89 72.5813 1053.17 70.832 1054.79 69.296C1056.5 67.6747 1058.46 66.6507 1060.68 66.224C1062.98 65.712 1065.84 65.456 1069.26 65.456H1070.79ZM1075.91 65.584H1092.17C1095.58 65.584 1098.4 65.84 1100.62 66.352C1102.92 66.864 1104.88 67.9307 1106.5 69.552C1108.21 71.088 1109.49 72.8373 1110.34 74.8C1111.28 76.7627 1112.01 79.7067 1112.52 83.632C1113.29 89.52 1113.67 97.456 1113.67 107.44C1113.67 117.339 1113.59 124.336 1113.42 128.432C1113.33 132.528 1113.03 136.539 1112.52 140.464C1112.01 144.304 1111.28 147.205 1110.34 149.168C1109.49 151.045 1108.21 152.795 1106.5 154.416C1104.88 155.952 1102.92 156.976 1100.62 157.488C1098.4 157.915 1095.58 158.128 1092.17 158.128H1090.63V81.456C1090.63 80.176 1090.29 79.2373 1089.61 78.64C1089.01 78.0427 1087.6 77.744 1085.38 77.744H1075.91V65.584Z" fill="white"/>
</svg>
